<svg width="36" height="37" viewBox="0 0 36 37" fill="none" xmlns="http://www.w3.org/2000/svg">
<g clip-path="url(#clip0_1_305)">
<path d="M31.4706 26.4456C34 26.4456 36 28.475 36 30.9103C36 33.3456 33.9412 35.375 31.4706 35.375C29 35.375 26.9412 33.3456 26.9412 30.9103C26.9412 28.475 29 26.4456 31.4706 26.4456ZM33.1176 0.875C33.7059 0.875 34.1765 1.33887 34.1765 1.9187C34.1765 2.49853 33.7059 2.96239 33.1176 2.96239C16 2.96239 2.05882 16.6464 2.11765 33.5775C2.11765 34.1574 1.64706 34.6212 1.05882 34.6212C0.470588 34.6212 0 34.1574 0 33.5775C0 15.5447 14.8235 0.932983 33.1176 0.875ZM33.0588 10.3263C33.6471 10.3263 34.1176 10.7901 34.1176 11.37C34.1176 11.8918 33.7059 12.3557 33.1176 12.3557C21.2353 12.3557 11.5882 21.8649 11.6471 33.5195C11.6471 34.0994 11.1765 34.5632 10.5882 34.5632C10 34.5632 9.52941 34.0994 9.52941 33.5195C9.52941 20.7632 20.0588 10.3263 33.0588 10.3263ZM33.0588 19.6616C33.6471 19.6616 34.1176 20.1254 34.1176 20.7053C34.1176 21.2851 33.7059 21.691 33.1176 21.691C26.5294 21.691 21.1176 26.9674 21.1176 33.5195C21.1176 34.0994 20.6471 34.5632 20.0588 34.5632C19.4706 34.5632 19 34.0994 19 33.5195C19 25.8658 25.2941 19.6616 33.0588 19.6616ZM31.4706 28.533C30.1176 28.533 29 29.6347 29 30.9683C29 32.3019 30.1176 33.4036 31.4706 33.4036C32.8235 33.4036 33.9412 32.3019 33.9412 30.9683C33.9412 29.6347 32.8235 28.533 31.4706 28.533Z" fill="#52503B"/>
</g>
<defs>
<clipPath id="clip0_1_305">
<rect width="36" height="36" fill="white" transform="translate(0 0.125)"/>
</clipPath>
</defs>
</svg>
